<mxfile host="app.diagrams.net" modified="2023-05-02T10:54:47.607Z" agent="Mozilla/5.0 (X11; Linux x86_64; rv:112.0) Gecko/20100101 Firefox/112.0" etag="UM8mfJ0eYfCL-9dzo9uP" version="21.2.4" type="device">
  <diagram name="Page-1" id="2YBvvXClWsGukQMizWep">
    <mxGraphModel dx="2284" dy="719" grid="1" gridSize="10" guides="1" tooltips="1" connect="1" arrows="1" fold="1" page="1" pageScale="1" pageWidth="850" pageHeight="1100" math="0" shadow="0">
      <root>
        <mxCell id="0" />
        <mxCell id="1" parent="0" />
        <mxCell id="aM9ryv3xv72pqoxQDRHE-1" value="Client" style="shape=umlLifeline;perimeter=lifelinePerimeter;whiteSpace=wrap;html=1;container=0;dropTarget=0;collapsible=0;recursiveResize=0;outlineConnect=0;portConstraint=eastwest;newEdgeStyle={&quot;edgeStyle&quot;:&quot;elbowEdgeStyle&quot;,&quot;elbow&quot;:&quot;vertical&quot;,&quot;curved&quot;:0,&quot;rounded&quot;:0};" parent="1" vertex="1">
          <mxGeometry x="270" y="230" width="100" height="480" as="geometry" />
        </mxCell>
        <mxCell id="aM9ryv3xv72pqoxQDRHE-2" value="" style="html=1;points=[];perimeter=orthogonalPerimeter;outlineConnect=0;targetShapes=umlLifeline;portConstraint=eastwest;newEdgeStyle={&quot;edgeStyle&quot;:&quot;elbowEdgeStyle&quot;,&quot;elbow&quot;:&quot;vertical&quot;,&quot;curved&quot;:0,&quot;rounded&quot;:0};" parent="aM9ryv3xv72pqoxQDRHE-1" vertex="1">
          <mxGeometry x="45" y="70" width="10" height="410" as="geometry" />
        </mxCell>
        <mxCell id="aM9ryv3xv72pqoxQDRHE-5" value="Auth server" style="shape=umlLifeline;perimeter=lifelinePerimeter;whiteSpace=wrap;html=1;container=0;dropTarget=0;collapsible=0;recursiveResize=0;outlineConnect=0;portConstraint=eastwest;newEdgeStyle={&quot;edgeStyle&quot;:&quot;elbowEdgeStyle&quot;,&quot;elbow&quot;:&quot;vertical&quot;,&quot;curved&quot;:0,&quot;rounded&quot;:0};" parent="1" vertex="1">
          <mxGeometry x="450" y="230" width="100" height="780" as="geometry" />
        </mxCell>
        <mxCell id="aM9ryv3xv72pqoxQDRHE-6" value="" style="html=1;points=[];perimeter=orthogonalPerimeter;outlineConnect=0;targetShapes=umlLifeline;portConstraint=eastwest;newEdgeStyle={&quot;edgeStyle&quot;:&quot;elbowEdgeStyle&quot;,&quot;elbow&quot;:&quot;vertical&quot;,&quot;curved&quot;:0,&quot;rounded&quot;:0};" parent="aM9ryv3xv72pqoxQDRHE-5" vertex="1">
          <mxGeometry x="45" y="80" width="10" height="700" as="geometry" />
        </mxCell>
        <mxCell id="aM9ryv3xv72pqoxQDRHE-7" value="OAuth request" style="html=1;verticalAlign=bottom;endArrow=block;edgeStyle=elbowEdgeStyle;elbow=vertical;curved=0;rounded=0;" parent="1" source="aM9ryv3xv72pqoxQDRHE-2" target="aM9ryv3xv72pqoxQDRHE-6" edge="1">
          <mxGeometry x="0.1176" y="10" relative="1" as="geometry">
            <mxPoint x="425" y="320" as="sourcePoint" />
            <Array as="points">
              <mxPoint x="420" y="350" />
              <mxPoint x="430" y="370" />
              <mxPoint x="410" y="310" />
            </Array>
            <mxPoint as="offset" />
          </mxGeometry>
        </mxCell>
        <mxCell id="Be2-yIWvbpQGaGzqK6KZ-1" value="oauth_helper::run" style="text;html=1;strokeColor=none;fillColor=none;align=center;verticalAlign=middle;whiteSpace=wrap;rounded=0;" vertex="1" parent="1">
          <mxGeometry x="220" y="280" width="60" height="30" as="geometry" />
        </mxCell>
        <mxCell id="Be2-yIWvbpQGaGzqK6KZ-2" value="QOAuth2AuthorizationCodeFlow::grant" style="text;html=1;strokeColor=none;fillColor=none;align=center;verticalAlign=middle;whiteSpace=wrap;rounded=0;" vertex="1" parent="1">
          <mxGeometry x="160" y="310" width="60" height="30" as="geometry" />
        </mxCell>
        <mxCell id="Be2-yIWvbpQGaGzqK6KZ-3" value="authserver_apache" style="rounded=0;whiteSpace=wrap;html=1;" vertex="1" parent="1">
          <mxGeometry x="590" y="230" width="100" height="40" as="geometry" />
        </mxCell>
        <mxCell id="Be2-yIWvbpQGaGzqK6KZ-29" value="" style="edgeStyle=elbowEdgeStyle;rounded=0;orthogonalLoop=1;jettySize=auto;html=1;elbow=vertical;curved=0;" edge="1" parent="1" source="Be2-yIWvbpQGaGzqK6KZ-4" target="aM9ryv3xv72pqoxQDRHE-5">
          <mxGeometry relative="1" as="geometry">
            <Array as="points">
              <mxPoint x="610" y="780" />
            </Array>
          </mxGeometry>
        </mxCell>
        <mxCell id="Be2-yIWvbpQGaGzqK6KZ-30" value="&lt;div&gt;Request granted&lt;/div&gt;" style="edgeLabel;html=1;align=center;verticalAlign=middle;resizable=0;points=[];" vertex="1" connectable="0" parent="Be2-yIWvbpQGaGzqK6KZ-29">
          <mxGeometry x="0.1341" y="4" relative="1" as="geometry">
            <mxPoint x="14" y="-24" as="offset" />
          </mxGeometry>
        </mxCell>
        <mxCell id="Be2-yIWvbpQGaGzqK6KZ-4" value="" style="html=1;points=[];perimeter=orthogonalPerimeter;outlineConnect=0;targetShapes=umlLifeline;portConstraint=eastwest;newEdgeStyle={&quot;edgeStyle&quot;:&quot;elbowEdgeStyle&quot;,&quot;elbow&quot;:&quot;vertical&quot;,&quot;curved&quot;:0,&quot;rounded&quot;:0};" vertex="1" parent="1">
          <mxGeometry x="630" y="310" width="10" height="490" as="geometry" />
        </mxCell>
        <mxCell id="Be2-yIWvbpQGaGzqK6KZ-5" value="" style="edgeStyle=elbowEdgeStyle;rounded=0;orthogonalLoop=1;jettySize=auto;html=1;elbow=vertical;curved=0;" edge="1" parent="1" source="aM9ryv3xv72pqoxQDRHE-6" target="Be2-yIWvbpQGaGzqK6KZ-4">
          <mxGeometry relative="1" as="geometry">
            <Array as="points">
              <mxPoint x="568" y="395" />
            </Array>
          </mxGeometry>
        </mxCell>
        <mxCell id="Be2-yIWvbpQGaGzqK6KZ-6" value="OAuth request" style="text;html=1;strokeColor=none;fillColor=none;align=center;verticalAlign=middle;whiteSpace=wrap;rounded=0;" vertex="1" parent="1">
          <mxGeometry x="530" y="350" width="60" height="30" as="geometry" />
        </mxCell>
        <mxCell id="Be2-yIWvbpQGaGzqK6KZ-7" value="" style="endArrow=none;dashed=1;html=1;rounded=0;entryX=0.41;entryY=1.1;entryDx=0;entryDy=0;entryPerimeter=0;" edge="1" parent="1" source="Be2-yIWvbpQGaGzqK6KZ-4" target="Be2-yIWvbpQGaGzqK6KZ-3">
          <mxGeometry width="50" height="50" relative="1" as="geometry">
            <mxPoint x="400" y="400" as="sourcePoint" />
            <mxPoint x="560" y="290" as="targetPoint" />
            <Array as="points">
              <mxPoint x="630" y="290" />
            </Array>
          </mxGeometry>
        </mxCell>
        <mxCell id="Be2-yIWvbpQGaGzqK6KZ-8" value="Shibbolet" style="text;html=1;strokeColor=none;fillColor=none;align=center;verticalAlign=middle;whiteSpace=wrap;rounded=0;" vertex="1" parent="1">
          <mxGeometry x="570" y="410" width="60" height="30" as="geometry" />
        </mxCell>
        <mxCell id="Be2-yIWvbpQGaGzqK6KZ-18" value="" style="edgeStyle=elbowEdgeStyle;rounded=0;orthogonalLoop=1;jettySize=auto;html=1;elbow=vertical;curved=0;" edge="1" parent="1" source="Be2-yIWvbpQGaGzqK6KZ-11" target="Be2-yIWvbpQGaGzqK6KZ-4">
          <mxGeometry relative="1" as="geometry">
            <Array as="points">
              <mxPoint x="690" y="510" />
            </Array>
          </mxGeometry>
        </mxCell>
        <mxCell id="Be2-yIWvbpQGaGzqK6KZ-11" value="" style="html=1;points=[];perimeter=orthogonalPerimeter;outlineConnect=0;targetShapes=umlLifeline;portConstraint=eastwest;newEdgeStyle={&quot;edgeStyle&quot;:&quot;elbowEdgeStyle&quot;,&quot;elbow&quot;:&quot;vertical&quot;,&quot;curved&quot;:0,&quot;rounded&quot;:0};" vertex="1" parent="1">
          <mxGeometry x="741" y="310" width="10" height="230" as="geometry" />
        </mxCell>
        <mxCell id="Be2-yIWvbpQGaGzqK6KZ-13" value="Identity provider (IDP)" style="rounded=0;whiteSpace=wrap;html=1;" vertex="1" parent="1">
          <mxGeometry x="710" y="230" width="80" height="40" as="geometry" />
        </mxCell>
        <mxCell id="Be2-yIWvbpQGaGzqK6KZ-15" value="" style="endArrow=classic;startArrow=classic;html=1;rounded=0;" edge="1" parent="1" source="Be2-yIWvbpQGaGzqK6KZ-4" target="Be2-yIWvbpQGaGzqK6KZ-11">
          <mxGeometry width="50" height="50" relative="1" as="geometry">
            <mxPoint x="660" y="510" as="sourcePoint" />
            <mxPoint x="710" y="460" as="targetPoint" />
            <Array as="points">
              <mxPoint x="680" y="470" />
            </Array>
          </mxGeometry>
        </mxCell>
        <mxCell id="Be2-yIWvbpQGaGzqK6KZ-16" value="SAML2 exchange" style="text;html=1;align=center;verticalAlign=middle;resizable=0;points=[];autosize=1;strokeColor=none;fillColor=none;" vertex="1" parent="1">
          <mxGeometry x="621" y="438" width="120" height="30" as="geometry" />
        </mxCell>
        <mxCell id="Be2-yIWvbpQGaGzqK6KZ-19" value="User ID" style="text;html=1;align=center;verticalAlign=middle;resizable=0;points=[];autosize=1;strokeColor=none;fillColor=none;" vertex="1" parent="1">
          <mxGeometry x="641" y="488" width="60" height="30" as="geometry" />
        </mxCell>
        <mxCell id="Be2-yIWvbpQGaGzqK6KZ-20" value="" style="endArrow=classic;html=1;rounded=0;" edge="1" parent="1" source="Be2-yIWvbpQGaGzqK6KZ-4" target="aM9ryv3xv72pqoxQDRHE-2">
          <mxGeometry width="50" height="50" relative="1" as="geometry">
            <mxPoint x="410" y="590" as="sourcePoint" />
            <mxPoint x="450" y="470" as="targetPoint" />
            <Array as="points">
              <mxPoint x="460" y="580" />
            </Array>
          </mxGeometry>
        </mxCell>
        <mxCell id="Be2-yIWvbpQGaGzqK6KZ-21" value="Redirect to /authserver/auth" style="edgeLabel;html=1;align=center;verticalAlign=middle;resizable=0;points=[];" vertex="1" connectable="0" parent="Be2-yIWvbpQGaGzqK6KZ-20">
          <mxGeometry x="0.5738" relative="1" as="geometry">
            <mxPoint x="170" y="-10" as="offset" />
          </mxGeometry>
        </mxCell>
        <mxCell id="Be2-yIWvbpQGaGzqK6KZ-24" value="" style="edgeStyle=elbowEdgeStyle;rounded=0;orthogonalLoop=1;jettySize=auto;html=1;elbow=vertical;curved=0;" edge="1" parent="1" source="aM9ryv3xv72pqoxQDRHE-2" target="aM9ryv3xv72pqoxQDRHE-5">
          <mxGeometry relative="1" as="geometry">
            <mxPoint x="370" y="505" as="targetPoint" />
            <Array as="points">
              <mxPoint x="370" y="650" />
            </Array>
          </mxGeometry>
        </mxCell>
        <mxCell id="Be2-yIWvbpQGaGzqK6KZ-25" value="request /authserver/auth" style="edgeLabel;html=1;align=center;verticalAlign=middle;resizable=0;points=[];" vertex="1" connectable="0" parent="Be2-yIWvbpQGaGzqK6KZ-24">
          <mxGeometry x="-0.1862" y="-3" relative="1" as="geometry">
            <mxPoint x="14" y="-23" as="offset" />
          </mxGeometry>
        </mxCell>
        <mxCell id="Be2-yIWvbpQGaGzqK6KZ-26" value="" style="edgeStyle=elbowEdgeStyle;rounded=0;orthogonalLoop=1;jettySize=auto;html=1;elbow=vertical;curved=0;" edge="1" parent="1" source="aM9ryv3xv72pqoxQDRHE-6" target="Be2-yIWvbpQGaGzqK6KZ-4">
          <mxGeometry relative="1" as="geometry">
            <Array as="points">
              <mxPoint x="600" y="700" />
            </Array>
          </mxGeometry>
        </mxCell>
        <mxCell id="Be2-yIWvbpQGaGzqK6KZ-28" value="Shibbolet" style="text;html=1;strokeColor=none;fillColor=none;align=center;verticalAlign=middle;whiteSpace=wrap;rounded=0;" vertex="1" parent="1">
          <mxGeometry x="570" y="720" width="60" height="30" as="geometry" />
        </mxCell>
        <mxCell id="Be2-yIWvbpQGaGzqK6KZ-31" value="" style="html=1;points=[];perimeter=orthogonalPerimeter;outlineConnect=0;targetShapes=umlLifeline;portConstraint=eastwest;newEdgeStyle={&quot;edgeStyle&quot;:&quot;elbowEdgeStyle&quot;,&quot;elbow&quot;:&quot;vertical&quot;,&quot;curved&quot;:0,&quot;rounded&quot;:0};" vertex="1" parent="1">
          <mxGeometry x="920" y="690" width="10" height="700" as="geometry" />
        </mxCell>
        <mxCell id="Be2-yIWvbpQGaGzqK6KZ-32" value="" style="edgeStyle=elbowEdgeStyle;rounded=0;orthogonalLoop=1;jettySize=auto;html=1;elbow=vertical;curved=0;" edge="1" parent="1" source="aM9ryv3xv72pqoxQDRHE-6" target="Be2-yIWvbpQGaGzqK6KZ-31">
          <mxGeometry relative="1" as="geometry" />
        </mxCell>
        <mxCell id="Be2-yIWvbpQGaGzqK6KZ-33" value="Proxy-pass" style="edgeLabel;html=1;align=center;verticalAlign=middle;resizable=0;points=[];" vertex="1" connectable="0" parent="Be2-yIWvbpQGaGzqK6KZ-32">
          <mxGeometry x="-0.6955" relative="1" as="geometry">
            <mxPoint x="125" y="-20" as="offset" />
          </mxGeometry>
        </mxCell>
        <mxCell id="Be2-yIWvbpQGaGzqK6KZ-34" value="pep_authserver" style="rounded=0;whiteSpace=wrap;html=1;" vertex="1" parent="1">
          <mxGeometry x="860" y="230" width="130" height="60" as="geometry" />
        </mxCell>
        <mxCell id="Be2-yIWvbpQGaGzqK6KZ-35" value="" style="endArrow=none;dashed=1;html=1;dashPattern=1 3;strokeWidth=2;rounded=0;entryX=0.569;entryY=1.05;entryDx=0;entryDy=0;entryPerimeter=0;" edge="1" parent="1" source="Be2-yIWvbpQGaGzqK6KZ-31" target="Be2-yIWvbpQGaGzqK6KZ-34">
          <mxGeometry width="50" height="50" relative="1" as="geometry">
            <mxPoint x="920" y="350" as="sourcePoint" />
            <mxPoint x="970" y="300" as="targetPoint" />
          </mxGeometry>
        </mxCell>
        <mxCell id="Be2-yIWvbpQGaGzqK6KZ-36" value="OAuthProvider::handleAuthorizationRequest" style="text;html=1;strokeColor=none;fillColor=none;align=center;verticalAlign=middle;whiteSpace=wrap;rounded=0;" vertex="1" parent="1">
          <mxGeometry x="770" y="910" width="60" height="30" as="geometry" />
        </mxCell>
        <mxCell id="Be2-yIWvbpQGaGzqK6KZ-37" value="" style="ellipse;whiteSpace=wrap;html=1;strokeWidth=2;fillWeight=2;hachureGap=8;fillColor=#990000;fillStyle=dots;sketch=1;" vertex="1" parent="1">
          <mxGeometry x="-10" y="1280" width="120" height="60" as="geometry" />
        </mxCell>
        <mxCell id="Be2-yIWvbpQGaGzqK6KZ-38" value="Pizza" style="text;html=1;strokeColor=none;fillColor=none;align=center;verticalAlign=middle;whiteSpace=wrap;rounded=0;" vertex="1" parent="1">
          <mxGeometry x="20" y="1360" width="60" height="30" as="geometry" />
        </mxCell>
        <mxCell id="Be2-yIWvbpQGaGzqK6KZ-39" value="" style="endArrow=none;dashed=1;html=1;dashPattern=1 3;strokeWidth=2;rounded=0;entryX=0.413;entryY=0.95;entryDx=0;entryDy=0;entryPerimeter=0;" edge="1" parent="1" source="Be2-yIWvbpQGaGzqK6KZ-11" target="Be2-yIWvbpQGaGzqK6KZ-13">
          <mxGeometry width="50" height="50" relative="1" as="geometry">
            <mxPoint x="410" y="310" as="sourcePoint" />
            <mxPoint x="460" y="260" as="targetPoint" />
          </mxGeometry>
        </mxCell>
      </root>
    </mxGraphModel>
  </diagram>
</mxfile>
